<svg xmlns="http://www.w3.org/2000/svg" version="1.1" xmlns:xlink="http://www.w3.org/1999/xlink" viewBox="0 0 200 200"><rect width="200" height="200" fill="url('#gradient')"></rect><defs><linearGradient id="gradient" gradientTransform="rotate(360 0.5 0.5)"><stop offset="0%" stop-color="#e0e9ef"></stop><stop offset="100%" stop-color="#191819"></stop></linearGradient></defs><g><g fill="#191718" transform="matrix(4.278624203821656,0,0,4.278624203821656,13.417778249527998,129.99487360583748)" stroke="#1a1b1a" stroke-width="0.05"><path d="M9.89-8.57L9.89-6.03L4.50-6.03L4.50-2.64L10.87-2.64L10.87 0L1.07 0L1.07-14.22L10.89-14.22L10.89-11.57L4.50-11.57L4.50-8.57L9.89-8.57ZM14.43-10.57L16.07-3.92L17.74-10.57L21.21-10.57L17.76 0L14.40 0L10.96-10.57L14.43-10.57ZM27.18 0.20L27.18 0.20Q24.75 0.20 23.24-1.25Q21.74-2.71 21.74-5.03L21.74-5.03L21.74-5.30Q21.74-6.92 22.34-8.16Q22.94-9.40 24.09-10.08Q25.24-10.76 26.83-10.76L26.83-10.76Q29.05-10.76 30.34-9.38Q31.63-8.00 31.63-5.53L31.63-5.53L31.63-4.25L25.09-4.25Q25.26-3.36 25.86-2.85Q26.46-2.34 27.40-2.34L27.40-2.34Q28.96-2.34 29.84-3.44L29.84-3.44L31.35-1.66Q30.73-0.81 29.60-0.31Q28.48 0.20 27.18 0.20ZM26.81-8.22L26.81-8.22Q25.36-8.22 25.09-6.31L25.09-6.31L28.41-6.31L28.41-6.56Q28.43-7.35 28.01-7.79Q27.59-8.22 26.81-8.22ZM39.40-10.64L39.35-7.59L38.26-7.67Q36.71-7.67 36.27-6.69L36.27-6.69L36.27 0L32.98 0L32.98-10.57L36.06-10.57L36.17-9.21Q37.00-10.76 38.49-10.76L38.49-10.76Q39.01-10.76 39.40-10.64L39.40-10.64Z"></path></g></g></svg>